<svg width="1200" height="150" viewBox="0 0 1200 150" fill="none" xmlns="http://www.w3.org/2000/svg">
<g clip-path="url(#clip0_49_31)">
<rect width="1200" height="150" fill="black"/>
<path d="M190.106 77.384C188.548 77.384 187.002 77.1813 185.466 76.776C183.93 76.3493 182.628 75.752 181.562 74.984L183.578 71.016C184.431 71.6347 185.423 72.1253 186.554 72.488C187.684 72.8507 188.826 73.032 189.978 73.032C191.279 73.032 192.303 72.776 193.05 72.264C193.796 71.752 194.17 71.048 194.17 70.152C194.17 69.2987 193.839 68.6267 193.178 68.136C192.516 67.6453 191.45 67.4 189.978 67.4H187.61V63.976L193.85 56.904L194.426 58.76H182.682V54.6H198.362V57.96L192.154 65.032L189.53 63.528H191.034C193.786 63.528 195.866 64.1467 197.274 65.384C198.682 66.6213 199.386 68.2107 199.386 70.152C199.386 71.4107 199.055 72.5947 198.394 73.704C197.732 74.792 196.719 75.6773 195.354 76.36C193.988 77.0427 192.239 77.384 190.106 77.384ZM218.458 77.384C216.9 77.384 215.354 77.1813 213.818 76.776C212.303 76.3493 211.002 75.752 209.914 74.984L211.962 71.016C212.815 71.6347 213.796 72.1253 214.906 72.488C216.036 72.8507 217.178 73.032 218.33 73.032C219.631 73.032 220.655 72.776 221.402 72.264C222.148 71.752 222.522 71.0373 222.522 70.12C222.522 69.544 222.372 69.032 222.074 68.584C221.775 68.136 221.242 67.7947 220.474 67.56C219.727 67.3253 218.671 67.208 217.306 67.208H211.578L212.73 54.6H226.394V58.76H214.586L217.274 56.392L216.474 65.384L213.786 63.016H218.522C220.74 63.016 222.522 63.3253 223.866 63.944C225.231 64.5413 226.223 65.3627 226.842 66.408C227.46 67.4533 227.77 68.6373 227.77 69.96C227.77 71.2827 227.439 72.5093 226.778 73.64C226.116 74.7493 225.092 75.656 223.706 76.36C222.34 77.0427 220.591 77.384 218.458 77.384ZM229.617 72.296V68.808L240.177 54.6H245.617L235.281 68.808L232.753 68.072H250.385V72.296H229.617ZM241.681 77V72.296L241.841 68.072V63.88H246.737V77H241.681ZM261.536 77.384C259.701 77.384 258.058 76.936 256.608 76.04C255.157 75.1227 254.016 73.8 253.184 72.072C252.352 70.344 251.936 68.2533 251.936 65.8C251.936 63.3467 252.352 61.256 253.184 59.528C254.016 57.8 255.157 56.488 256.608 55.592C258.058 54.6747 259.701 54.216 261.536 54.216C263.392 54.216 265.034 54.6747 266.464 55.592C267.914 56.488 269.056 57.8 269.888 59.528C270.72 61.256 271.136 63.3467 271.136 65.8C271.136 68.2533 270.72 70.344 269.888 72.072C269.056 73.8 267.914 75.1227 266.464 76.04C265.034 76.936 263.392 77.384 261.536 77.384ZM261.536 73C262.41 73 263.168 72.7547 263.808 72.264C264.469 71.7733 264.981 70.9947 265.344 69.928C265.728 68.8613 265.92 67.4853 265.92 65.8C265.92 64.1147 265.728 62.7387 265.344 61.672C264.981 60.6053 264.469 59.8267 263.808 59.336C263.168 58.8453 262.41 58.6 261.536 58.6C260.682 58.6 259.925 58.8453 259.264 59.336C258.624 59.8267 258.112 60.6053 257.728 61.672C257.365 62.7387 257.184 64.1147 257.184 65.8C257.184 67.4853 257.365 68.8613 257.728 69.928C258.112 70.9947 258.624 71.7733 259.264 72.264C259.925 72.7547 260.682 73 261.536 73Z" fill="white"/>
<path d="M571.591 77.384C569.713 77.384 568.071 77.1067 566.663 76.552C565.255 75.976 564.156 75.176 563.367 74.152C562.577 73.1067 562.183 71.8907 562.183 70.504C562.183 69.1173 562.567 67.944 563.335 66.984C564.124 66.0027 565.223 65.2667 566.631 64.776C568.039 64.264 569.692 64.008 571.591 64.008C573.511 64.008 575.175 64.264 576.583 64.776C578.012 65.2667 579.111 66.0027 579.878 66.984C580.668 67.944 581.062 69.1173 581.062 70.504C581.062 71.8907 580.668 73.1067 579.878 74.152C579.089 75.176 577.98 75.976 576.551 76.552C575.143 77.1067 573.489 77.384 571.591 77.384ZM571.591 73.576C572.892 73.576 573.916 73.288 574.663 72.712C575.431 72.136 575.815 71.3467 575.815 70.344C575.815 69.3413 575.431 68.5627 574.663 68.008C573.916 67.432 572.892 67.144 571.591 67.144C570.311 67.144 569.297 67.432 568.551 68.008C567.804 68.5627 567.431 69.3413 567.431 70.344C567.431 71.3467 567.804 72.136 568.551 72.712C569.297 73.288 570.311 73.576 571.591 73.576ZM571.591 66.632C569.863 66.632 568.348 66.3973 567.047 65.928C565.767 65.4587 564.764 64.776 564.039 63.88C563.335 62.9627 562.983 61.8747 562.983 60.616C562.983 59.2933 563.345 58.1627 564.071 57.224C564.796 56.264 565.809 55.528 567.111 55.016C568.412 54.4827 569.905 54.216 571.591 54.216C573.319 54.216 574.823 54.4827 576.103 55.016C577.404 55.528 578.417 56.264 579.142 57.224C579.889 58.1627 580.263 59.2933 580.263 60.616C580.263 61.8747 579.9 62.9627 579.175 63.88C578.471 64.776 577.468 65.4587 576.167 65.928C574.865 66.3973 573.34 66.632 571.591 66.632ZM571.591 63.592C572.679 63.592 573.532 63.3467 574.151 62.856C574.791 62.3653 575.111 61.6933 575.111 60.84C575.111 59.944 574.78 59.2507 574.119 58.76C573.479 58.2693 572.636 58.024 571.591 58.024C570.567 58.024 569.735 58.2693 569.095 58.76C568.455 59.2507 568.135 59.944 568.135 60.84C568.135 61.6933 568.444 62.3653 569.062 62.856C569.681 63.3467 570.524 63.592 571.591 63.592ZM591.052 77.384C589.494 77.384 587.948 77.1813 586.411 76.776C584.897 76.3493 583.596 75.752 582.508 74.984L584.556 71.016C585.409 71.6347 586.39 72.1253 587.5 72.488C588.63 72.8507 589.772 73.032 590.924 73.032C592.225 73.032 593.249 72.776 593.996 72.264C594.742 71.752 595.116 71.0373 595.116 70.12C595.116 69.544 594.966 69.032 594.668 68.584C594.369 68.136 593.836 67.7947 593.068 67.56C592.321 67.3253 591.265 67.208 589.9 67.208H584.172L585.324 54.6H598.988V58.76H587.18L589.868 56.392L589.068 65.384L586.38 63.016H591.116C593.334 63.016 595.116 63.3253 596.46 63.944C597.825 64.5413 598.817 65.3627 599.436 66.408C600.054 67.4533 600.364 68.6373 600.364 69.96C600.364 71.2827 600.033 72.5093 599.372 73.64C598.71 74.7493 597.686 75.656 596.3 76.36C594.934 77.0427 593.185 77.384 591.052 77.384ZM612.067 77.384C610.232 77.384 608.589 76.936 607.139 76.04C605.688 75.1227 604.547 73.8 603.715 72.072C602.883 70.344 602.467 68.2533 602.467 65.8C602.467 63.3467 602.883 61.256 603.715 59.528C604.547 57.8 605.688 56.488 607.139 55.592C608.589 54.6747 610.232 54.216 612.067 54.216C613.923 54.216 615.565 54.6747 616.995 55.592C618.445 56.488 619.587 57.8 620.419 59.528C621.251 61.256 621.667 63.3467 621.667 65.8C621.667 68.2533 621.251 70.344 620.419 72.072C619.587 73.8 618.445 75.1227 616.995 76.04C615.565 76.936 613.923 77.384 612.067 77.384ZM612.067 73C612.941 73 613.699 72.7547 614.339 72.264C615 71.7733 615.512 70.9947 615.875 69.928C616.259 68.8613 616.451 67.4853 616.451 65.8C616.451 64.1147 616.259 62.7387 615.875 61.672C615.512 60.6053 615 59.8267 614.339 59.336C613.699 58.8453 612.941 58.6 612.067 58.6C611.213 58.6 610.456 58.8453 609.795 59.336C609.155 59.8267 608.643 60.6053 608.259 61.672C607.896 62.7387 607.715 64.1147 607.715 65.8C607.715 67.4853 607.896 68.8613 608.259 69.928C608.643 70.9947 609.155 71.7733 609.795 72.264C610.456 72.7547 611.213 73 612.067 73Z" fill="white"/>
<path d="M978.063 77V56.52L980.303 58.76H973.583V54.6H983.247V77H978.063ZM996.739 77.384C994.904 77.384 993.261 76.936 991.811 76.04C990.36 75.1227 989.219 73.8 988.387 72.072C987.555 70.344 987.139 68.2533 987.139 65.8C987.139 63.3467 987.555 61.256 988.387 59.528C989.219 57.8 990.36 56.488 991.811 55.592C993.261 54.6747 994.904 54.216 996.739 54.216C998.595 54.216 1000.24 54.6747 1001.67 55.592C1003.12 56.488 1004.26 57.8 1005.09 59.528C1005.92 61.256 1006.34 63.3467 1006.34 65.8C1006.34 68.2533 1005.92 70.344 1005.09 72.072C1004.26 73.8 1003.12 75.1227 1001.67 76.04C1000.24 76.936 998.595 77.384 996.739 77.384ZM996.739 73C997.613 73 998.371 72.7547 999.011 72.264C999.672 71.7733 1000.18 70.9947 1000.55 69.928C1000.93 68.8613 1001.12 67.4853 1001.12 65.8C1001.12 64.1147 1000.93 62.7387 1000.55 61.672C1000.18 60.6053 999.672 59.8267 999.011 59.336C998.371 58.8453 997.613 58.6 996.739 58.6C995.885 58.6 995.128 58.8453 994.467 59.336C993.827 59.8267 993.315 60.6053 992.931 61.672C992.568 62.7387 992.387 64.1147 992.387 65.8C992.387 67.4853 992.568 68.8613 992.931 69.928C993.315 70.9947 993.827 71.7733 994.467 72.264C995.128 72.7547 995.885 73 996.739 73ZM1016.47 77.384C1014.92 77.384 1013.37 77.1813 1011.83 76.776C1010.32 76.3493 1009.02 75.752 1007.93 74.984L1009.98 71.016C1010.83 71.6347 1011.81 72.1253 1012.92 72.488C1014.05 72.8507 1015.19 73.032 1016.35 73.032C1017.65 73.032 1018.67 72.776 1019.42 72.264C1020.16 71.752 1020.54 71.0373 1020.54 70.12C1020.54 69.544 1020.39 69.032 1020.09 68.584C1019.79 68.136 1019.26 67.7947 1018.49 67.56C1017.74 67.3253 1016.69 67.208 1015.32 67.208H1009.59L1010.75 54.6H1024.41V58.76H1012.6L1015.29 56.392L1014.49 65.384L1011.8 63.016H1016.54C1018.76 63.016 1020.54 63.3253 1021.88 63.944C1023.25 64.5413 1024.24 65.3627 1024.86 66.408C1025.48 67.4533 1025.79 68.6373 1025.79 69.96C1025.79 71.2827 1025.45 72.5093 1024.79 73.64C1024.13 74.7493 1023.11 75.656 1021.72 76.36C1020.36 77.0427 1018.61 77.384 1016.47 77.384Z" fill="white"/>
<path d="M111.707 105.76L112.707 103.44C113.307 103.8 113.947 104.08 114.627 104.28C115.32 104.467 115.993 104.573 116.647 104.6C117.313 104.613 117.913 104.547 118.447 104.4C118.993 104.253 119.427 104.033 119.747 103.74C120.08 103.447 120.247 103.073 120.247 102.62C120.247 102.087 120.027 101.693 119.587 101.44C119.147 101.173 118.56 101.04 117.827 101.04H114.407V98.6H117.587C118.24 98.6 118.747 98.4667 119.107 98.2C119.48 97.9333 119.667 97.5667 119.667 97.1C119.667 96.7 119.533 96.38 119.267 96.14C119 95.8867 118.633 95.7 118.167 95.58C117.713 95.46 117.2 95.4067 116.627 95.42C116.053 95.4333 115.46 95.5267 114.847 95.7C114.233 95.8733 113.647 96.1133 113.087 96.42L112.107 93.92C113.013 93.4533 113.967 93.1333 114.967 92.96C115.98 92.7733 116.953 92.7267 117.887 92.82C118.833 92.9 119.687 93.1133 120.447 93.46C121.207 93.7933 121.813 94.2333 122.267 94.78C122.72 95.3267 122.947 95.9733 122.947 96.72C122.947 97.3867 122.773 97.98 122.427 98.5C122.08 99.02 121.593 99.42 120.967 99.7C120.353 99.98 119.647 100.12 118.847 100.12L118.927 99.4C119.86 99.4 120.667 99.56 121.347 99.88C122.04 100.187 122.573 100.62 122.947 101.18C123.333 101.727 123.527 102.36 123.527 103.08C123.527 103.747 123.347 104.347 122.987 104.88C122.64 105.4 122.16 105.84 121.547 106.2C120.933 106.56 120.233 106.827 119.447 107C118.66 107.173 117.82 107.247 116.927 107.22C116.047 107.193 115.16 107.067 114.267 106.84C113.373 106.6 112.52 106.24 111.707 105.76ZM132.292 107V104.9L132.092 104.44V100.68C132.092 100.013 131.885 99.4933 131.472 99.12C131.072 98.7467 130.452 98.56 129.612 98.56C129.038 98.56 128.472 98.6533 127.912 98.84C127.365 99.0133 126.898 99.2533 126.512 99.56L125.392 97.38C125.978 96.9667 126.685 96.6467 127.512 96.42C128.338 96.1933 129.178 96.08 130.032 96.08C131.672 96.08 132.945 96.4667 133.852 97.24C134.758 98.0133 135.212 99.22 135.212 100.86V107H132.292ZM129.012 107.16C128.172 107.16 127.452 107.02 126.852 106.74C126.252 106.447 125.792 106.053 125.472 105.56C125.152 105.067 124.992 104.513 124.992 103.9C124.992 103.26 125.145 102.7 125.452 102.22C125.772 101.74 126.272 101.367 126.952 101.1C127.632 100.82 128.518 100.68 129.612 100.68H132.472V102.5H129.952C129.218 102.5 128.712 102.62 128.432 102.86C128.165 103.1 128.032 103.4 128.032 103.76C128.032 104.16 128.185 104.48 128.492 104.72C128.812 104.947 129.245 105.06 129.792 105.06C130.312 105.06 130.778 104.94 131.192 104.7C131.605 104.447 131.905 104.08 132.092 103.6L132.572 105.04C132.345 105.733 131.932 106.26 131.332 106.62C130.732 106.98 129.958 107.16 129.012 107.16ZM145.322 105.6V98.8H141.802L141.742 100.18C141.715 100.753 141.682 101.3 141.642 101.82C141.602 102.34 141.522 102.813 141.402 103.24C141.295 103.653 141.135 104.007 140.922 104.3C140.709 104.58 140.422 104.773 140.062 104.88L136.982 104.44C137.369 104.44 137.682 104.327 137.922 104.1C138.162 103.86 138.349 103.533 138.482 103.12C138.615 102.693 138.715 102.213 138.782 101.68C138.849 101.133 138.895 100.56 138.922 99.96L139.062 96.24H148.442V105.6H145.322ZM136.622 109.32V104.44H149.982V109.32H147.082V107H139.522V109.32H136.622ZM156.985 107.16C155.839 107.16 154.819 106.92 153.925 106.44C153.045 105.96 152.345 105.307 151.825 104.48C151.319 103.64 151.065 102.687 151.065 101.62C151.065 100.54 151.319 99.5867 151.825 98.76C152.345 97.92 153.045 97.2667 153.925 96.8C154.819 96.32 155.839 96.08 156.985 96.08C158.119 96.08 159.132 96.32 160.025 96.8C160.919 97.2667 161.619 97.9133 162.125 98.74C162.632 99.5667 162.885 100.527 162.885 101.62C162.885 102.687 162.632 103.64 162.125 104.48C161.619 105.307 160.919 105.96 160.025 106.44C159.132 106.92 158.119 107.16 156.985 107.16ZM156.985 104.6C157.505 104.6 157.972 104.48 158.385 104.24C158.799 104 159.125 103.66 159.365 103.22C159.605 102.767 159.725 102.233 159.725 101.62C159.725 100.993 159.605 100.46 159.365 100.02C159.125 99.58 158.799 99.24 158.385 99C157.972 98.76 157.505 98.64 156.985 98.64C156.465 98.64 155.999 98.76 155.585 99C155.172 99.24 154.839 99.58 154.585 100.02C154.345 100.46 154.225 100.993 154.225 101.62C154.225 102.233 154.345 102.767 154.585 103.22C154.839 103.66 155.172 104 155.585 104.24C155.999 104.48 156.465 104.6 156.985 104.6ZM165.031 107V96.24H170.531C171.878 96.24 172.931 96.4867 173.691 96.98C174.451 97.46 174.831 98.14 174.831 99.02C174.831 99.9 174.471 100.593 173.751 101.1C173.045 101.593 172.105 101.84 170.931 101.84L171.251 101.12C172.558 101.12 173.531 101.36 174.171 101.84C174.825 102.32 175.151 103.02 175.151 103.94C175.151 104.887 174.791 105.633 174.071 106.18C173.351 106.727 172.251 107 170.771 107H165.031ZM167.891 104.88H170.511C171.085 104.88 171.511 104.787 171.791 104.6C172.085 104.4 172.231 104.1 172.231 103.7C172.231 103.287 172.098 102.987 171.831 102.8C171.565 102.6 171.145 102.5 170.571 102.5H167.891V104.88ZM167.891 100.66H170.251C170.798 100.66 171.205 100.56 171.471 100.36C171.751 100.16 171.891 99.8733 171.891 99.5C171.891 99.1133 171.751 98.8267 171.471 98.64C171.205 98.4533 170.798 98.36 170.251 98.36H167.891V100.66ZM182.513 107.16C181.366 107.16 180.346 106.92 179.453 106.44C178.573 105.96 177.873 105.307 177.353 104.48C176.846 103.64 176.593 102.687 176.593 101.62C176.593 100.54 176.846 99.5867 177.353 98.76C177.873 97.92 178.573 97.2667 179.453 96.8C180.346 96.32 181.366 96.08 182.513 96.08C183.646 96.08 184.659 96.32 185.553 96.8C186.446 97.2667 187.146 97.9133 187.653 98.74C188.159 99.5667 188.413 100.527 188.413 101.62C188.413 102.687 188.159 103.64 187.653 104.48C187.146 105.307 186.446 105.96 185.553 106.44C184.659 106.92 183.646 107.16 182.513 107.16ZM182.513 104.6C183.033 104.6 183.499 104.48 183.913 104.24C184.326 104 184.653 103.66 184.893 103.22C185.133 102.767 185.253 102.233 185.253 101.62C185.253 100.993 185.133 100.46 184.893 100.02C184.653 99.58 184.326 99.24 183.913 99C183.499 98.76 183.033 98.64 182.513 98.64C181.993 98.64 181.526 98.76 181.113 99C180.699 99.24 180.366 99.58 180.113 100.02C179.873 100.46 179.753 100.993 179.753 101.62C179.753 102.233 179.873 102.767 180.113 103.22C180.366 103.66 180.699 104 181.113 104.24C181.526 104.48 181.993 104.6 182.513 104.6ZM189.042 106.98L189.202 104.42C189.282 104.433 189.362 104.447 189.442 104.46C189.522 104.46 189.596 104.46 189.662 104.46C190.036 104.46 190.329 104.353 190.542 104.14C190.756 103.927 190.916 103.64 191.022 103.28C191.129 102.907 191.202 102.487 191.242 102.02C191.296 101.553 191.336 101.067 191.362 100.56L191.522 96.24H200.722V107H197.602V98.04L198.302 98.8H193.582L194.242 98L194.102 100.7C194.062 101.66 193.982 102.54 193.862 103.34C193.756 104.14 193.576 104.833 193.322 105.42C193.069 105.993 192.729 106.44 192.302 106.76C191.876 107.067 191.329 107.22 190.662 107.22C190.422 107.22 190.169 107.2 189.902 107.16C189.636 107.12 189.349 107.06 189.042 106.98ZM208.983 107.16C207.756 107.16 206.676 106.92 205.743 106.44C204.823 105.96 204.109 105.307 203.603 104.48C203.096 103.64 202.843 102.687 202.843 101.62C202.843 100.54 203.089 99.5867 203.583 98.76C204.089 97.92 204.776 97.2667 205.643 96.8C206.509 96.32 207.489 96.08 208.583 96.08C209.636 96.08 210.583 96.3067 211.423 96.76C212.276 97.2 212.949 97.84 213.443 98.68C213.936 99.5067 214.183 100.5 214.183 101.66C214.183 101.78 214.176 101.92 214.163 102.08C214.149 102.227 214.136 102.367 214.123 102.5H205.383V100.68H212.483L211.283 101.22C211.283 100.66 211.169 100.173 210.943 99.76C210.716 99.3467 210.403 99.0267 210.003 98.8C209.603 98.56 209.136 98.44 208.603 98.44C208.069 98.44 207.596 98.56 207.183 98.8C206.783 99.0267 206.469 99.3533 206.243 99.78C206.016 100.193 205.903 100.687 205.903 101.26V101.74C205.903 102.327 206.029 102.847 206.283 103.3C206.549 103.74 206.916 104.08 207.383 104.32C207.863 104.547 208.423 104.66 209.063 104.66C209.636 104.66 210.136 104.573 210.563 104.4C211.003 104.227 211.403 103.967 211.763 103.62L213.423 105.42C212.929 105.98 212.309 106.413 211.563 106.72C210.816 107.013 209.956 107.16 208.983 107.16ZM216.574 107V96.24H219.674V100.44H224.354V96.24H227.474V107H224.354V102.98H219.674V107H216.574ZM230.461 107V96.24H233.561V102.64L238.801 96.24H241.661V107H238.561V100.6L233.341 107H230.461ZM243.22 107L248.04 100.68L247.98 102.4L243.36 96.24H246.86L249.78 100.26L248.46 100.3L251.48 96.24H254.8L250.16 102.34V100.66L254.96 107H251.42L248.36 102.72L249.66 102.9L246.62 107H243.22ZM262.16 107V96.24H270.78V98.8H264.56L265.26 98.12V107H262.16ZM278.774 107.16C277.867 107.16 277.074 106.96 276.394 106.56C275.714 106.16 275.18 105.553 274.794 104.74C274.42 103.913 274.234 102.873 274.234 101.62C274.234 100.353 274.414 99.3133 274.774 98.5C275.134 97.6867 275.654 97.08 276.334 96.68C277.014 96.28 277.827 96.08 278.774 96.08C279.787 96.08 280.694 96.3133 281.494 96.78C282.307 97.2333 282.947 97.8733 283.414 98.7C283.894 99.5267 284.134 100.5 284.134 101.62C284.134 102.753 283.894 103.733 283.414 104.56C282.947 105.387 282.307 106.027 281.494 106.48C280.694 106.933 279.787 107.16 278.774 107.16ZM272.414 110.88V96.24H275.394V98.44L275.334 101.64L275.534 104.82V110.88H272.414ZM278.234 104.6C278.754 104.6 279.214 104.48 279.614 104.24C280.027 104 280.354 103.66 280.594 103.22C280.847 102.767 280.974 102.233 280.974 101.62C280.974 100.993 280.847 100.46 280.594 100.02C280.354 99.58 280.027 99.24 279.614 99C279.214 98.76 278.754 98.64 278.234 98.64C277.714 98.64 277.247 98.76 276.834 99C276.42 99.24 276.094 99.58 275.854 100.02C275.614 100.46 275.494 100.993 275.494 101.62C275.494 102.233 275.614 102.767 275.854 103.22C276.094 103.66 276.42 104 276.834 104.24C277.247 104.48 277.714 104.6 278.234 104.6ZM292.585 107V104.9L292.385 104.44V100.68C292.385 100.013 292.178 99.4933 291.765 99.12C291.365 98.7467 290.745 98.56 289.905 98.56C289.331 98.56 288.765 98.6533 288.205 98.84C287.658 99.0133 287.191 99.2533 286.805 99.56L285.685 97.38C286.271 96.9667 286.978 96.6467 287.805 96.42C288.631 96.1933 289.471 96.08 290.325 96.08C291.965 96.08 293.238 96.4667 294.145 97.24C295.051 98.0133 295.505 99.22 295.505 100.86V107H292.585ZM289.305 107.16C288.465 107.16 287.745 107.02 287.145 106.74C286.545 106.447 286.085 106.053 285.765 105.56C285.445 105.067 285.285 104.513 285.285 103.9C285.285 103.26 285.438 102.7 285.745 102.22C286.065 101.74 286.565 101.367 287.245 101.1C287.925 100.82 288.811 100.68 289.905 100.68H292.765V102.5H290.245C289.511 102.5 289.005 102.62 288.725 102.86C288.458 103.1 288.325 103.4 288.325 103.76C288.325 104.16 288.478 104.48 288.785 104.72C289.105 104.947 289.538 105.06 290.085 105.06C290.605 105.06 291.071 104.94 291.485 104.7C291.898 104.447 292.198 104.08 292.385 103.6L292.865 105.04C292.638 105.733 292.225 106.26 291.625 106.62C291.025 106.98 290.251 107.16 289.305 107.16ZM298.215 107V96.24H303.715C305.062 96.24 306.115 96.4867 306.875 96.98C307.635 97.46 308.015 98.14 308.015 99.02C308.015 99.9 307.655 100.593 306.935 101.1C306.228 101.593 305.288 101.84 304.115 101.84L304.435 101.12C305.742 101.12 306.715 101.36 307.355 101.84C308.008 102.32 308.335 103.02 308.335 103.94C308.335 104.887 307.975 105.633 307.255 106.18C306.535 106.727 305.435 107 303.955 107H298.215ZM301.075 104.88H303.695C304.268 104.88 304.695 104.787 304.975 104.6C305.268 104.4 305.415 104.1 305.415 103.7C305.415 103.287 305.282 102.987 305.015 102.8C304.748 102.6 304.328 102.5 303.755 102.5H301.075V104.88ZM301.075 100.66H303.435C303.982 100.66 304.388 100.56 304.655 100.36C304.935 100.16 305.075 99.8733 305.075 99.5C305.075 99.1133 304.935 98.8267 304.655 98.64C304.388 98.4533 303.982 98.36 303.435 98.36H301.075V100.66ZM310.656 107V96.24H313.756V104.44H318.096V96.24H321.216V107H310.656ZM319.876 109.32V106.96L320.596 107H318.096V104.44H322.776V109.32H319.876ZM324.718 107V96.24H327.838V107H324.718ZM326.278 94.74C325.705 94.74 325.238 94.5733 324.878 94.24C324.518 93.9067 324.338 93.4933 324.338 93C324.338 92.5067 324.518 92.0933 324.878 91.76C325.238 91.4267 325.705 91.26 326.278 91.26C326.852 91.26 327.318 91.42 327.678 91.74C328.038 92.0467 328.218 92.4467 328.218 92.94C328.218 93.46 328.038 93.8933 327.678 94.24C327.332 94.5733 326.865 94.74 326.278 94.74ZM330.832 107V96.24H336.332C337.679 96.24 338.732 96.4867 339.492 96.98C340.252 97.46 340.632 98.14 340.632 99.02C340.632 99.9 340.272 100.593 339.552 101.1C338.845 101.593 337.905 101.84 336.732 101.84L337.052 101.12C338.359 101.12 339.332 101.36 339.972 101.84C340.625 102.32 340.952 103.02 340.952 103.94C340.952 104.887 340.592 105.633 339.872 106.18C339.152 106.727 338.052 107 336.572 107H330.832ZM333.692 104.88H336.312C336.885 104.88 337.312 104.787 337.592 104.6C337.885 104.4 338.032 104.1 338.032 103.7C338.032 103.287 337.899 102.987 337.632 102.8C337.365 102.6 336.945 102.5 336.372 102.5H333.692V104.88ZM333.692 100.66H336.052C336.599 100.66 337.005 100.56 337.272 100.36C337.552 100.16 337.692 99.8733 337.692 99.5C337.692 99.1133 337.552 98.8267 337.272 98.64C337.005 98.4533 336.599 98.36 336.052 98.36H333.692V100.66Z" fill="white"/>
<path d="M491.23 107V93H503.99V107H500.77V94.9L501.51 95.64H493.71L494.45 94.9V107H491.23ZM513.561 107.16C512.654 107.16 511.861 106.96 511.181 106.56C510.501 106.16 509.967 105.553 509.581 104.74C509.207 103.913 509.021 102.873 509.021 101.62C509.021 100.353 509.201 99.3133 509.561 98.5C509.921 97.6867 510.441 97.08 511.121 96.68C511.801 96.28 512.614 96.08 513.561 96.08C514.574 96.08 515.481 96.3133 516.281 96.78C517.094 97.2333 517.734 97.8733 518.201 98.7C518.681 99.5267 518.921 100.5 518.921 101.62C518.921 102.753 518.681 103.733 518.201 104.56C517.734 105.387 517.094 106.027 516.281 106.48C515.481 106.933 514.574 107.16 513.561 107.16ZM507.201 110.88V96.24H510.181V98.44L510.121 101.64L510.321 104.82V110.88H507.201ZM513.021 104.6C513.541 104.6 514.001 104.48 514.401 104.24C514.814 104 515.141 103.66 515.381 103.22C515.634 102.767 515.761 102.233 515.761 101.62C515.761 100.993 515.634 100.46 515.381 100.02C515.141 99.58 514.814 99.24 514.401 99C514.001 98.76 513.541 98.64 513.021 98.64C512.501 98.64 512.034 98.76 511.621 99C511.207 99.24 510.881 99.58 510.641 100.02C510.401 100.46 510.281 100.993 510.281 101.62C510.281 102.233 510.401 102.767 510.641 103.22C510.881 103.66 511.207 104 511.621 104.24C512.034 104.48 512.501 104.6 513.021 104.6ZM526.147 107.16C525.001 107.16 523.981 106.92 523.087 106.44C522.207 105.96 521.507 105.307 520.987 104.48C520.481 103.64 520.227 102.687 520.227 101.62C520.227 100.54 520.481 99.5867 520.987 98.76C521.507 97.92 522.207 97.2667 523.087 96.8C523.981 96.32 525.001 96.08 526.147 96.08C527.281 96.08 528.294 96.32 529.187 96.8C530.081 97.2667 530.781 97.9133 531.287 98.74C531.794 99.5667 532.047 100.527 532.047 101.62C532.047 102.687 531.794 103.64 531.287 104.48C530.781 105.307 530.081 105.96 529.187 106.44C528.294 106.92 527.281 107.16 526.147 107.16ZM526.147 104.6C526.667 104.6 527.134 104.48 527.547 104.24C527.961 104 528.287 103.66 528.527 103.22C528.767 102.767 528.887 102.233 528.887 101.62C528.887 100.993 528.767 100.46 528.527 100.02C528.287 99.58 527.961 99.24 527.547 99C527.134 98.76 526.667 98.64 526.147 98.64C525.627 98.64 525.161 98.76 524.747 99C524.334 99.24 524.001 99.58 523.747 100.02C523.507 100.46 523.387 100.993 523.387 101.62C523.387 102.233 523.507 102.767 523.747 103.22C524.001 103.66 524.334 104 524.747 104.24C525.161 104.48 525.627 104.6 526.147 104.6ZM534.193 107V96.24H539.693C541.04 96.24 542.093 96.4867 542.853 96.98C543.613 97.46 543.993 98.14 543.993 99.02C543.993 99.9 543.633 100.593 542.913 101.1C542.207 101.593 541.267 101.84 540.093 101.84L540.413 101.12C541.72 101.12 542.693 101.36 543.333 101.84C543.987 102.32 544.313 103.02 544.313 103.94C544.313 104.887 543.953 105.633 543.233 106.18C542.513 106.727 541.413 107 539.933 107H534.193ZM537.053 104.88H539.673C540.247 104.88 540.673 104.787 540.953 104.6C541.247 104.4 541.393 104.1 541.393 103.7C541.393 103.287 541.26 102.987 540.993 102.8C540.727 102.6 540.307 102.5 539.733 102.5H537.053V104.88ZM537.053 100.66H539.413C539.96 100.66 540.367 100.56 540.633 100.36C540.913 100.16 541.053 99.8733 541.053 99.5C541.053 99.1133 540.913 98.8267 540.633 98.64C540.367 98.4533 539.96 98.36 539.413 98.36H537.053V100.66ZM551.895 107.16C550.668 107.16 549.588 106.92 548.655 106.44C547.735 105.96 547.021 105.307 546.515 104.48C546.008 103.64 545.755 102.687 545.755 101.62C545.755 100.54 546.001 99.5867 546.495 98.76C547.001 97.92 547.688 97.2667 548.555 96.8C549.421 96.32 550.401 96.08 551.495 96.08C552.548 96.08 553.495 96.3067 554.335 96.76C555.188 97.2 555.861 97.84 556.355 98.68C556.848 99.5067 557.095 100.5 557.095 101.66C557.095 101.78 557.088 101.92 557.075 102.08C557.061 102.227 557.048 102.367 557.035 102.5H548.295V100.68H555.395L554.195 101.22C554.195 100.66 554.081 100.173 553.855 99.76C553.628 99.3467 553.315 99.0267 552.915 98.8C552.515 98.56 552.048 98.44 551.515 98.44C550.981 98.44 550.508 98.56 550.095 98.8C549.695 99.0267 549.381 99.3533 549.155 99.78C548.928 100.193 548.815 100.687 548.815 101.26V101.74C548.815 102.327 548.941 102.847 549.195 103.3C549.461 103.74 549.828 104.08 550.295 104.32C550.775 104.547 551.335 104.66 551.975 104.66C552.548 104.66 553.048 104.573 553.475 104.4C553.915 104.227 554.315 103.967 554.675 103.62L556.335 105.42C555.841 105.98 555.221 106.413 554.475 106.72C553.728 107.013 552.868 107.16 551.895 107.16ZM566.789 105.6V98.8H563.269L563.209 100.18C563.182 100.753 563.149 101.3 563.109 101.82C563.069 102.34 562.989 102.813 562.869 103.24C562.762 103.653 562.602 104.007 562.389 104.3C562.175 104.58 561.889 104.773 561.529 104.88L558.449 104.44C558.835 104.44 559.149 104.327 559.389 104.1C559.629 103.86 559.815 103.533 559.949 103.12C560.082 102.693 560.182 102.213 560.249 101.68C560.315 101.133 560.362 100.56 560.389 99.96L560.529 96.24H569.909V105.6H566.789ZM558.089 109.32V104.44H571.449V109.32H568.549V107H560.989V109.32H558.089ZM578.672 107.16C577.445 107.16 576.365 106.92 575.432 106.44C574.512 105.96 573.799 105.307 573.292 104.48C572.785 103.64 572.532 102.687 572.532 101.62C572.532 100.54 572.779 99.5867 573.272 98.76C573.779 97.92 574.465 97.2667 575.332 96.8C576.199 96.32 577.179 96.08 578.272 96.08C579.325 96.08 580.272 96.3067 581.112 96.76C581.965 97.2 582.639 97.84 583.132 98.68C583.625 99.5067 583.872 100.5 583.872 101.66C583.872 101.78 583.865 101.92 583.852 102.08C583.839 102.227 583.825 102.367 583.812 102.5H575.072V100.68H582.172L580.972 101.22C580.972 100.66 580.859 100.173 580.632 99.76C580.405 99.3467 580.092 99.0267 579.692 98.8C579.292 98.56 578.825 98.44 578.292 98.44C577.759 98.44 577.285 98.56 576.872 98.8C576.472 99.0267 576.159 99.3533 575.932 99.78C575.705 100.193 575.592 100.687 575.592 101.26V101.74C575.592 102.327 575.719 102.847 575.972 103.3C576.239 103.74 576.605 104.08 577.072 104.32C577.552 104.547 578.112 104.66 578.752 104.66C579.325 104.66 579.825 104.573 580.252 104.4C580.692 104.227 581.092 103.967 581.452 103.62L583.112 105.42C582.619 105.98 581.999 106.413 581.252 106.72C580.505 107.013 579.645 107.16 578.672 107.16ZM586.264 107V96.24H589.364V100.44H594.044V96.24H597.164V107H594.044V102.98H589.364V107H586.264ZM600.15 107V96.24H603.25V102.64L608.49 96.24H611.35V107H608.25V100.6L603.03 107H600.15ZM612.91 107L617.73 100.68L617.67 102.4L613.05 96.24H616.55L619.47 100.26L618.15 100.3L621.17 96.24H624.49L619.85 102.34V100.66L624.65 107H621.11L618.05 102.72L619.35 102.9L616.31 107H612.91ZM639.47 107L635.87 101.9L638.41 100.4L643.15 107H639.47ZM631.85 107V96.24H634.97V107H631.85ZM634.05 102.92V100.42H637.81V102.92H634.05ZM638.71 101.98L635.79 101.66L639.57 96.24H642.89L638.71 101.98ZM644.682 107V96.24H650.182C651.528 96.24 652.582 96.4867 653.342 96.98C654.102 97.46 654.482 98.14 654.482 99.02C654.482 99.9 654.122 100.593 653.402 101.1C652.695 101.593 651.755 101.84 650.582 101.84L650.902 101.12C652.208 101.12 653.182 101.36 653.822 101.84C654.475 102.32 654.802 103.02 654.802 103.94C654.802 104.887 654.442 105.633 653.722 106.18C653.002 106.727 651.902 107 650.422 107H644.682ZM647.542 104.88H650.162C650.735 104.88 651.162 104.787 651.442 104.6C651.735 104.4 651.882 104.1 651.882 103.7C651.882 103.287 651.748 102.987 651.482 102.8C651.215 102.6 650.795 102.5 650.222 102.5H647.542V104.88ZM647.542 100.66H649.902C650.448 100.66 650.855 100.56 651.122 100.36C651.402 100.16 651.542 99.8733 651.542 99.5C651.542 99.1133 651.402 98.8267 651.122 98.64C650.855 98.4533 650.448 98.36 649.902 98.36H647.542V100.66ZM662.383 107.16C661.156 107.16 660.076 106.92 659.143 106.44C658.223 105.96 657.51 105.307 657.003 104.48C656.496 103.64 656.243 102.687 656.243 101.62C656.243 100.54 656.49 99.5867 656.983 98.76C657.49 97.92 658.176 97.2667 659.043 96.8C659.91 96.32 660.89 96.08 661.983 96.08C663.036 96.08 663.983 96.3067 664.823 96.76C665.676 97.2 666.35 97.84 666.843 98.68C667.336 99.5067 667.583 100.5 667.583 101.66C667.583 101.78 667.576 101.92 667.563 102.08C667.55 102.227 667.536 102.367 667.523 102.5H658.783V100.68H665.883L664.683 101.22C664.683 100.66 664.57 100.173 664.343 99.76C664.116 99.3467 663.803 99.0267 663.403 98.8C663.003 98.56 662.536 98.44 662.003 98.44C661.47 98.44 660.996 98.56 660.583 98.8C660.183 99.0267 659.87 99.3533 659.643 99.78C659.416 100.193 659.303 100.687 659.303 101.26V101.74C659.303 102.327 659.43 102.847 659.683 103.3C659.95 103.74 660.316 104.08 660.783 104.32C661.263 104.547 661.823 104.66 662.463 104.66C663.036 104.66 663.536 104.573 663.963 104.4C664.403 104.227 664.803 103.967 665.163 103.62L666.823 105.42C666.33 105.98 665.71 106.413 664.963 106.72C664.216 107.013 663.356 107.16 662.383 107.16ZM675.095 107.16C673.935 107.16 672.901 106.927 671.995 106.46C671.088 105.98 670.375 105.32 669.855 104.48C669.348 103.64 669.095 102.687 669.095 101.62C669.095 100.54 669.348 99.5867 669.855 98.76C670.375 97.92 671.088 97.2667 671.995 96.8C672.901 96.32 673.935 96.08 675.095 96.08C676.228 96.08 677.215 96.32 678.055 96.8C678.895 97.2667 679.515 97.94 679.915 98.82L677.495 100.12C677.215 99.6133 676.861 99.24 676.435 99C676.021 98.76 675.568 98.64 675.075 98.64C674.541 98.64 674.061 98.76 673.635 99C673.208 99.24 672.868 99.58 672.615 100.02C672.375 100.46 672.255 100.993 672.255 101.62C672.255 102.247 672.375 102.78 672.615 103.22C672.868 103.66 673.208 104 673.635 104.24C674.061 104.48 674.541 104.6 675.075 104.6C675.568 104.6 676.021 104.487 676.435 104.26C676.861 104.02 677.215 103.64 677.495 103.12L679.915 104.44C679.515 105.307 678.895 105.98 678.055 106.46C677.215 106.927 676.228 107.16 675.095 107.16ZM684.071 107V98.08L684.771 98.8H680.431V96.24H690.811V98.8H686.471L687.171 98.08V107H684.071ZM692.455 107V96.24H695.575V107H692.455ZM694.015 94.74C693.441 94.74 692.975 94.5733 692.615 94.24C692.255 93.9067 692.075 93.4933 692.075 93C692.075 92.5067 692.255 92.0933 692.615 91.76C692.975 91.4267 693.441 91.26 694.015 91.26C694.588 91.26 695.055 91.42 695.415 91.74C695.775 92.0467 695.955 92.4467 695.955 92.94C695.955 93.46 695.775 93.8933 695.415 94.24C695.068 94.5733 694.601 94.74 694.015 94.74ZM698.568 107V96.24H704.068C705.415 96.24 706.468 96.4867 707.228 96.98C707.988 97.46 708.368 98.14 708.368 99.02C708.368 99.9 708.008 100.593 707.288 101.1C706.582 101.593 705.642 101.84 704.468 101.84L704.788 101.12C706.095 101.12 707.068 101.36 707.708 101.84C708.362 102.32 708.688 103.02 708.688 103.94C708.688 104.887 708.328 105.633 707.608 106.18C706.888 106.727 705.788 107 704.308 107H698.568ZM701.428 104.88H704.048C704.622 104.88 705.048 104.787 705.328 104.6C705.622 104.4 705.768 104.1 705.768 103.7C705.768 103.287 705.635 102.987 705.368 102.8C705.102 102.6 704.682 102.5 704.108 102.5H701.428V104.88ZM701.428 100.66H703.788C704.335 100.66 704.742 100.56 705.008 100.36C705.288 100.16 705.428 99.8733 705.428 99.5C705.428 99.1133 705.288 98.8267 705.008 98.64C704.742 98.4533 704.335 98.36 703.788 98.36H701.428V100.66Z" fill="white"/>
<path d="M852.104 107V93.35H858.461C860.047 93.35 861.282 93.6555 862.166 94.2665C863.05 94.8775 863.492 95.7485 863.492 96.8795C863.492 97.9975 863.076 98.8685 862.244 99.4925C861.412 100.103 860.307 100.409 858.929 100.409L859.3 99.59C860.834 99.59 862.023 99.8955 862.868 100.506C863.713 101.117 864.136 102.001 864.136 103.158C864.136 104.354 863.681 105.297 862.771 105.986C861.874 106.662 860.561 107 858.832 107H852.104ZM855.244 104.66H858.715C859.443 104.66 859.995 104.517 860.372 104.231C860.749 103.945 860.938 103.503 860.938 102.905C860.938 102.333 860.749 101.91 860.372 101.637C859.995 101.351 859.443 101.208 858.715 101.208H855.244V104.66ZM855.244 99.005H858.188C858.877 99.005 859.397 98.8685 859.748 98.5955C860.099 98.3095 860.275 97.8935 860.275 97.3475C860.275 96.8015 860.099 96.392 859.748 96.119C859.397 95.833 858.877 95.69 858.188 95.69H855.244V99.005ZM866.381 107V96.509H869.423V107H866.381ZM867.902 95.0465C867.343 95.0465 866.888 94.884 866.537 94.559C866.186 94.234 866.01 93.831 866.01 93.35C866.01 92.869 866.186 92.466 866.537 92.141C866.888 91.816 867.343 91.6535 867.902 91.6535C868.461 91.6535 868.916 91.8095 869.267 92.1215C869.618 92.4205 869.793 92.8105 869.793 93.2915C869.793 93.7985 869.618 94.221 869.267 94.559C868.929 94.884 868.474 95.0465 867.902 95.0465ZM879.557 105.635V99.005H876.125L876.066 100.35C876.04 100.909 876.008 101.442 875.969 101.949C875.93 102.456 875.852 102.918 875.735 103.334C875.631 103.737 875.475 104.081 875.267 104.367C875.059 104.64 874.779 104.829 874.428 104.933L871.425 104.504C871.802 104.504 872.108 104.393 872.342 104.172C872.576 103.938 872.758 103.62 872.888 103.217C873.018 102.801 873.115 102.333 873.18 101.813C873.245 101.28 873.291 100.721 873.317 100.136L873.453 96.509H882.599V105.635H879.557ZM871.074 109.262V104.504H884.1V109.262H881.273V107H873.902V109.262H871.074ZM891.221 107.234C890.363 107.234 889.583 107.11 888.881 106.863C888.179 106.603 887.568 106.207 887.048 105.674C886.541 105.128 886.145 104.432 885.859 103.587C885.586 102.742 885.449 101.735 885.449 100.565C885.449 99.733 885.521 98.9725 885.664 98.2835C885.807 97.5945 886.021 96.9705 886.307 96.4115C886.593 95.8395 886.957 95.339 887.399 94.91C887.854 94.468 888.381 94.104 888.979 93.818C889.59 93.519 890.279 93.2915 891.046 93.1355L896.038 92.141L896.447 94.754L892.04 95.6315C891.78 95.6835 891.481 95.755 891.143 95.846C890.818 95.924 890.487 96.0475 890.149 96.2165C889.824 96.3855 889.518 96.626 889.232 96.938C888.959 97.237 888.738 97.6335 888.569 98.1275C888.4 98.6085 888.316 99.2065 888.316 99.9215C888.316 100.142 888.322 100.311 888.335 100.428C888.361 100.545 888.381 100.669 888.394 100.799C888.42 100.929 888.433 101.13 888.433 101.403L887.458 100.448C887.744 99.837 888.108 99.317 888.55 98.888C889.005 98.459 889.525 98.134 890.11 97.913C890.708 97.679 891.371 97.562 892.099 97.562C893.087 97.562 893.951 97.7635 894.692 98.1665C895.446 98.5565 896.031 99.109 896.447 99.824C896.863 100.539 897.071 101.351 897.071 102.261C897.071 103.249 896.824 104.12 896.33 104.874C895.836 105.615 895.147 106.194 894.263 106.61C893.392 107.026 892.378 107.234 891.221 107.234ZM891.377 104.874C891.884 104.874 892.333 104.764 892.723 104.543C893.113 104.309 893.412 104.003 893.62 103.626C893.841 103.236 893.951 102.801 893.951 102.32C893.951 101.852 893.841 101.436 893.62 101.072C893.412 100.708 893.113 100.422 892.723 100.214C892.333 100.006 891.878 99.902 891.358 99.902C890.851 99.902 890.396 100.006 889.993 100.214C889.59 100.409 889.278 100.682 889.057 101.033C888.836 101.384 888.725 101.793 888.725 102.261C888.725 102.742 888.836 103.184 889.057 103.587C889.291 103.977 889.603 104.289 889.993 104.523C890.396 104.757 890.857 104.874 891.377 104.874ZM900.273 110.939C899.727 110.939 899.187 110.855 898.654 110.686C898.121 110.517 897.686 110.283 897.348 109.984L898.459 107.819C898.693 108.027 898.96 108.19 899.259 108.307C899.571 108.424 899.876 108.482 900.175 108.482C900.604 108.482 900.942 108.378 901.189 108.17C901.449 107.975 901.683 107.644 901.891 107.176L902.437 105.888L902.671 105.557L906.435 96.509H909.36L904.621 107.643C904.283 108.489 903.893 109.152 903.451 109.633C903.022 110.114 902.541 110.452 902.008 110.647C901.488 110.842 900.91 110.939 900.273 110.939ZM902.067 107.41L897.387 96.509H900.526L904.153 105.284L902.067 107.41ZM908.759 106.98L908.915 104.484C908.993 104.497 909.071 104.51 909.149 104.523C909.227 104.523 909.298 104.523 909.363 104.523C909.727 104.523 910.013 104.419 910.221 104.211C910.429 104.003 910.585 103.724 910.689 103.373C910.793 103.009 910.865 102.599 910.904 102.144C910.956 101.689 910.995 101.215 911.021 100.721L911.177 96.509H920.147V107H917.105V98.264L917.787 99.005H913.185L913.829 98.225L913.692 100.857C913.653 101.793 913.575 102.651 913.458 103.431C913.354 104.211 913.179 104.887 912.932 105.459C912.685 106.018 912.353 106.454 911.937 106.766C911.521 107.065 910.988 107.215 910.338 107.215C910.104 107.215 909.857 107.195 909.597 107.156C909.337 107.117 909.058 107.059 908.759 106.98ZM923.072 107V96.509H926.095V102.749L931.204 96.509H933.992V107H930.97V100.76L925.88 107H923.072ZM941.908 107.156C940.777 107.156 939.77 106.929 938.886 106.473C938.002 106.005 937.306 105.362 936.799 104.543C936.305 103.724 936.058 102.794 936.058 101.754C936.058 100.701 936.305 99.772 936.799 98.966C937.306 98.147 938.002 97.51 938.886 97.055C939.77 96.587 940.777 96.353 941.908 96.353C943.013 96.353 943.975 96.587 944.794 97.055C945.613 97.51 946.218 98.1665 946.608 99.0245L944.248 100.292C943.975 99.798 943.631 99.434 943.215 99.2C942.812 98.966 942.37 98.849 941.889 98.849C941.369 98.849 940.901 98.966 940.485 99.2C940.069 99.434 939.737 99.7655 939.49 100.194C939.256 100.623 939.139 101.143 939.139 101.754C939.139 102.365 939.256 102.885 939.49 103.314C939.737 103.743 940.069 104.075 940.485 104.309C940.901 104.543 941.369 104.66 941.889 104.66C942.37 104.66 942.812 104.549 943.215 104.328C943.631 104.094 943.975 103.724 944.248 103.217L946.608 104.504C946.218 105.349 945.613 106.005 944.794 106.473C943.975 106.929 943.013 107.156 941.908 107.156ZM954.131 99.863C955.509 99.876 956.555 100.188 957.27 100.799C957.998 101.397 958.362 102.248 958.362 103.353C958.362 104.51 957.953 105.414 957.134 106.064C956.315 106.701 955.177 107.02 953.721 107.02L948.456 107V96.509H951.479V99.863H954.131ZM953.448 104.855C954.033 104.868 954.482 104.744 954.794 104.484C955.106 104.224 955.262 103.834 955.262 103.314C955.262 102.794 955.106 102.424 954.794 102.203C954.482 101.969 954.033 101.845 953.448 101.832L951.479 101.813V104.855H953.448ZM973 105.635V99.005H969.568L969.51 100.35C969.484 100.909 969.451 101.442 969.412 101.949C969.373 102.456 969.295 102.918 969.178 103.334C969.074 103.737 968.918 104.081 968.71 104.367C968.502 104.64 968.223 104.829 967.872 104.933L964.869 104.504C965.246 104.504 965.551 104.393 965.785 104.172C966.019 103.938 966.201 103.62 966.331 103.217C966.461 102.801 966.559 102.333 966.624 101.813C966.689 101.28 966.734 100.721 966.76 100.136L966.897 96.509H976.042V105.635H973ZM964.518 109.262V104.504H977.544V109.262H974.716V107H967.345V109.262H964.518ZM979.458 107V96.509H982.481V100.604H987.044V96.509H990.086V107H987.044V103.08H982.481V107H979.458ZM992.978 107V96.509H996.02V107H992.978ZM994.499 95.0465C993.94 95.0465 993.485 94.884 993.134 94.559C992.783 94.234 992.608 93.831 992.608 93.35C992.608 92.869 992.783 92.466 993.134 92.141C993.485 91.816 993.94 91.6535 994.499 91.6535C995.058 91.6535 995.513 91.8095 995.864 92.1215C996.215 92.4205 996.391 92.8105 996.391 93.2915C996.391 93.7985 996.215 94.221 995.864 94.559C995.526 94.884 995.071 95.0465 994.499 95.0465ZM998.939 107V96.509H1004.3C1005.61 96.509 1006.64 96.7495 1007.38 97.2305C1008.12 97.6985 1008.49 98.3615 1008.49 99.2195C1008.49 100.077 1008.14 100.753 1007.44 101.247C1006.75 101.728 1005.84 101.969 1004.69 101.969L1005 101.267C1006.28 101.267 1007.23 101.501 1007.85 101.969C1008.49 102.437 1008.81 103.119 1008.81 104.016C1008.81 104.939 1008.46 105.667 1007.75 106.2C1007.05 106.733 1005.98 107 1004.54 107H998.939ZM1001.73 104.933H1004.28C1004.84 104.933 1005.26 104.842 1005.53 104.66C1005.82 104.465 1005.96 104.172 1005.96 103.782C1005.96 103.379 1005.83 103.087 1005.57 102.905C1005.31 102.71 1004.9 102.612 1004.34 102.612H1001.73V104.933ZM1001.73 100.818H1004.03C1004.56 100.818 1004.96 100.721 1005.22 100.526C1005.49 100.331 1005.63 100.051 1005.63 99.6875C1005.63 99.3105 1005.49 99.031 1005.22 98.849C1004.96 98.667 1004.56 98.576 1004.03 98.576H1001.73V100.818ZM1016.59 107V96.509H1019.61V100.604H1024.18V96.509H1027.22V107H1024.18V103.08H1019.61V107H1016.59ZM1036.41 107V104.952L1036.22 104.504V100.838C1036.22 100.188 1036.01 99.681 1035.61 99.317C1035.22 98.953 1034.62 98.771 1033.8 98.771C1033.24 98.771 1032.69 98.862 1032.14 99.044C1031.61 99.213 1031.15 99.447 1030.78 99.746L1029.68 97.6205C1030.26 97.2175 1030.94 96.9055 1031.75 96.6845C1032.56 96.4635 1033.38 96.353 1034.21 96.353C1035.81 96.353 1037.05 96.73 1037.93 97.484C1038.82 98.238 1039.26 99.4145 1039.26 101.013V107H1036.41ZM1033.21 107.156C1032.39 107.156 1031.69 107.02 1031.11 106.746C1030.52 106.46 1030.07 106.077 1029.76 105.596C1029.45 105.115 1029.29 104.575 1029.29 103.977C1029.29 103.353 1029.44 102.807 1029.74 102.339C1030.05 101.871 1030.54 101.507 1031.2 101.247C1031.87 100.974 1032.73 100.838 1033.8 100.838H1036.59V102.612H1034.13C1033.41 102.612 1032.92 102.729 1032.65 102.963C1032.39 103.197 1032.26 103.49 1032.26 103.841C1032.26 104.231 1032.41 104.543 1032.71 104.777C1033.02 104.998 1033.44 105.108 1033.97 105.108C1034.48 105.108 1034.94 104.991 1035.34 104.757C1035.74 104.51 1036.03 104.153 1036.22 103.685L1036.68 105.089C1036.46 105.765 1036.06 106.278 1035.47 106.629C1034.89 106.98 1034.14 107.156 1033.21 107.156ZM1048.08 107.156C1047.2 107.156 1046.42 106.961 1045.76 106.571C1045.1 106.181 1044.58 105.589 1044.2 104.796C1043.84 103.99 1043.66 102.976 1043.66 101.754C1043.66 100.519 1043.83 99.5055 1044.18 98.7125C1044.53 97.9195 1045.04 97.328 1045.7 96.938C1046.37 96.548 1047.16 96.353 1048.08 96.353C1049.07 96.353 1049.95 96.5805 1050.73 97.0355C1051.53 97.4775 1052.15 98.1015 1052.61 98.9075C1053.07 99.7135 1053.31 100.662 1053.31 101.754C1053.31 102.859 1053.07 103.815 1052.61 104.621C1052.15 105.427 1051.53 106.051 1050.73 106.493C1049.95 106.935 1049.07 107.156 1048.08 107.156ZM1041.88 110.783V96.509H1044.79V98.654L1044.73 101.774L1044.92 104.874V110.783H1041.88ZM1047.56 104.66C1048.06 104.66 1048.51 104.543 1048.9 104.309C1049.3 104.075 1049.62 103.743 1049.86 103.314C1050.1 102.872 1050.23 102.352 1050.23 101.754C1050.23 101.143 1050.1 100.623 1049.86 100.194C1049.62 99.7655 1049.3 99.434 1048.9 99.2C1048.51 98.966 1048.06 98.849 1047.56 98.849C1047.05 98.849 1046.59 98.966 1046.19 99.2C1045.79 99.434 1045.47 99.7655 1045.23 100.194C1045 100.623 1044.88 101.143 1044.88 101.754C1044.88 102.352 1045 102.872 1045.23 103.314C1045.47 103.743 1045.79 104.075 1046.19 104.309C1046.59 104.543 1047.05 104.66 1047.56 104.66ZM1060.35 107.156C1059.24 107.156 1058.24 106.922 1057.37 106.454C1056.51 105.986 1055.83 105.349 1055.32 104.543C1054.83 103.724 1054.58 102.794 1054.58 101.754C1054.58 100.701 1054.83 99.772 1055.32 98.966C1055.83 98.147 1056.51 97.51 1057.37 97.055C1058.24 96.587 1059.24 96.353 1060.35 96.353C1061.46 96.353 1062.45 96.587 1063.32 97.055C1064.19 97.51 1064.87 98.1405 1065.37 98.9465C1065.86 99.7525 1066.11 100.688 1066.11 101.754C1066.11 102.794 1065.86 103.724 1065.37 104.543C1064.87 105.349 1064.19 105.986 1063.32 106.454C1062.45 106.922 1061.46 107.156 1060.35 107.156ZM1060.35 104.66C1060.86 104.66 1061.32 104.543 1061.72 104.309C1062.12 104.075 1062.44 103.743 1062.67 103.314C1062.91 102.872 1063.03 102.352 1063.03 101.754C1063.03 101.143 1062.91 100.623 1062.67 100.194C1062.44 99.7655 1062.12 99.434 1061.72 99.2C1061.32 98.966 1060.86 98.849 1060.35 98.849C1059.85 98.849 1059.39 98.966 1058.99 99.2C1058.59 99.434 1058.26 99.7655 1058.01 100.194C1057.78 100.623 1057.66 101.143 1057.66 101.754C1057.66 102.352 1057.78 102.872 1058.01 103.314C1058.26 103.743 1058.59 104.075 1058.99 104.309C1059.39 104.543 1059.85 104.66 1060.35 104.66ZM1075.26 105.635V99.005H1071.83L1071.77 100.35C1071.74 100.909 1071.71 101.442 1071.67 101.949C1071.63 102.456 1071.56 102.918 1071.44 103.334C1071.34 103.737 1071.18 104.081 1070.97 104.367C1070.76 104.64 1070.48 104.829 1070.13 104.933L1067.13 104.504C1067.51 104.504 1067.81 104.393 1068.05 104.172C1068.28 103.938 1068.46 103.62 1068.59 103.217C1068.72 102.801 1068.82 102.333 1068.88 101.813C1068.95 101.28 1069 100.721 1069.02 100.136L1069.16 96.509H1078.3V105.635H1075.26ZM1066.78 109.262V104.504H1079.8V109.262H1076.98V107H1069.61V109.262H1066.78ZM1094.34 107L1091.55 102.027L1094 100.565L1097.94 107H1094.34ZM1089.75 103.022V100.584H1093.4V103.022H1089.75ZM1094.32 102.105L1091.45 101.793L1094.47 96.509H1097.69L1094.32 102.105ZM1083.96 107H1080.37L1084.29 100.565L1086.75 102.027L1083.96 107ZM1090.65 107H1087.65V96.509H1090.65V107ZM1088.54 103.022H1084.92V100.584H1088.54V103.022ZM1083.98 102.105L1080.61 96.509H1083.83L1086.83 101.793L1083.98 102.105ZM1104.33 107.156C1103.13 107.156 1102.08 106.922 1101.17 106.454C1100.27 105.986 1099.58 105.349 1099.08 104.543C1098.59 103.724 1098.34 102.794 1098.34 101.754C1098.34 100.701 1098.58 99.772 1099.06 98.966C1099.56 98.147 1100.23 97.51 1101.07 97.055C1101.92 96.587 1102.87 96.353 1103.94 96.353C1104.97 96.353 1105.89 96.574 1106.71 97.016C1107.54 97.445 1108.2 98.069 1108.68 98.888C1109.16 99.694 1109.4 100.662 1109.4 101.793C1109.4 101.91 1109.39 102.047 1109.38 102.203C1109.37 102.346 1109.35 102.482 1109.34 102.612H1100.82V100.838H1107.74L1106.57 101.364C1106.57 100.818 1106.46 100.344 1106.24 99.941C1106.02 99.538 1105.71 99.226 1105.32 99.005C1104.93 98.771 1104.48 98.654 1103.96 98.654C1103.44 98.654 1102.98 98.771 1102.57 99.005C1102.18 99.226 1101.88 99.5445 1101.66 99.9605C1101.44 100.363 1101.33 100.844 1101.33 101.403V101.871C1101.33 102.443 1101.45 102.95 1101.7 103.392C1101.96 103.821 1102.31 104.153 1102.77 104.387C1103.24 104.608 1103.78 104.718 1104.41 104.718C1104.97 104.718 1105.45 104.634 1105.87 104.465C1106.3 104.296 1106.69 104.042 1107.04 103.704L1108.66 105.459C1108.18 106.005 1107.57 106.428 1106.84 106.727C1106.12 107.013 1105.28 107.156 1104.33 107.156ZM1111.73 107V96.509H1114.75V100.604H1119.32V96.509H1122.36V107H1119.32V103.08H1114.75V107H1111.73ZM1125.27 107V96.509H1128.29V100.604H1132.86V96.509H1135.9V107H1132.86V103.08H1128.29V107H1125.27ZM1145.42 107V103.509L1145.85 103.997H1142.94C1141.44 103.997 1140.25 103.685 1139.39 103.061C1138.54 102.437 1138.11 101.54 1138.11 100.37C1138.11 99.122 1138.56 98.1665 1139.45 97.5035C1140.36 96.8405 1141.59 96.509 1143.12 96.509H1148.13V107H1145.42ZM1137.95 107L1140.74 103.002H1143.84L1141.19 107H1137.95ZM1145.42 102.573V98.2055L1145.85 98.9855H1143.18C1142.55 98.9855 1142.07 99.1025 1141.72 99.3365C1141.38 99.5705 1141.21 99.9475 1141.21 100.467C1141.21 101.468 1141.85 101.969 1143.14 101.969H1145.85L1145.42 102.573Z" fill="white"/>
<line y1="149.25" x2="1200" y2="149.25" stroke="white" stroke-width="1.5"/>
<line y1="149.25" x2="1200" y2="149.25" stroke="white" stroke-width="1.5"/>
<line y1="149.25" x2="1200" y2="149.25" stroke="white" stroke-width="1.5"/>
</g>
<defs>
<clipPath id="clip0_49_31">
<rect width="1200" height="150" fill="white"/>
</clipPath>
</defs>
</svg>
