<svg width="22" height="17" viewBox="0 0 22 17" fill="none" xmlns="http://www.w3.org/2000/svg">
<path fill-rule="evenodd" clip-rule="evenodd" d="M4.73792 10.2966C4.78469 10.3093 4.83238 10.3192 4.88067 10.3262C5.18664 10.9636 5.49089 11.6017 5.79341 12.2404C6.33738 13.3897 6.88568 14.5734 7.00572 14.9137C7.15604 15.3325 7.31393 15.6175 7.48696 15.8125C7.57672 15.9119 7.67946 15.9999 7.80058 16.0668C7.86418 16.1009 7.93159 16.1291 8.00173 16.151C8.3478 16.2657 8.66358 16.2179 8.86148 16.1596C8.97768 16.1247 9.08821 16.0765 9.19024 16.0162L9.19565 16.0142L12.2518 14.3295L15.7828 16.7218C15.8347 16.7568 15.8909 16.7865 15.9515 16.8107C16.3754 16.9732 16.7863 17.0306 17.1735 16.9847C17.5585 16.9369 17.8645 16.7945 18.0927 16.6329C18.3545 16.446 18.5634 16.2076 18.7027 15.9368L18.7124 15.9158L18.7156 15.9081L18.7178 15.9043V15.9024L18.7189 15.9014C18.7366 15.86 18.7511 15.8175 18.7621 15.7743L21.9849 1.40839C21.9938 1.36225 21.9988 1.31559 22 1.2688C22 0.848098 21.8205 0.447479 21.3998 0.205577C21.0386 -0.00190305 20.6374 -0.0114645 20.3832 0.00574588C20.1107 0.0248685 19.8577 0.0841486 19.6879 0.131955C19.593 0.15904 19.4992 0.189017 19.4067 0.221832L19.3948 0.226612L1.31946 6.49501L1.3173 6.49596C1.25601 6.51554 1.19574 6.53755 1.1367 6.56194C0.993311 6.61882 0.855807 6.68664 0.725747 6.76464C0.480258 6.91284 -0.0853394 7.32015 0.0109096 7.99327C0.086611 8.5287 0.501887 8.85856 0.756027 9.01728C0.894453 9.10429 1.02639 9.16644 1.12372 9.20755C1.16698 9.22667 1.25998 9.25918 1.3 9.27448L1.31081 9.27735L4.73792 10.2966ZM20.0274 1.54607H20.0253L19.9972 1.55659L1.9002 7.83359L1.87208 7.84315L1.86127 7.84602C1.82813 7.85735 1.79565 7.87011 1.76394 7.88427C1.79418 7.89928 1.82521 7.913 1.85694 7.92538L5.25485 8.93697C5.31485 8.95662 5.37275 8.98093 5.42788 9.00963L16.6501 3.20114L16.6609 3.19636C16.7047 3.17329 16.7494 3.15161 16.795 3.13134C16.8729 3.09596 16.9972 3.04433 17.1378 3.00609C17.2351 2.97931 17.5239 2.90378 17.8353 2.9927C18.0008 3.03834 18.1483 3.1244 18.2608 3.24096C18.3733 3.35752 18.4463 3.49983 18.4712 3.65147C18.5115 3.78414 18.5126 3.92372 18.4745 4.05687C18.3988 4.31981 18.1911 4.52442 18.0019 4.68123C17.8397 4.81509 15.7352 6.60879 13.6599 8.37954L10.834 10.789L10.3312 11.2193L16.6814 15.5238C16.7672 15.5554 16.8602 15.5685 16.9529 15.562C16.9995 15.5563 17.0434 15.5391 17.0794 15.5123C17.1232 15.4795 17.1608 15.4408 17.1908 15.3975L17.193 15.3966L20.3183 1.46289C20.22 1.48429 20.1236 1.51177 20.0296 1.54512L20.0274 1.54607ZM10.8773 13.3964L9.60985 12.5378L9.30271 14.2636L10.8773 13.3964ZM8.44729 10.8339L9.70718 9.75828L12.533 7.34692L13.5853 6.45007L6.53421 10.0996L6.57206 10.178C7.01676 11.1068 7.45655 12.0375 7.89142 12.9699L8.19747 11.2489C8.22541 11.0893 8.31343 10.9438 8.44729 10.8339Z" fill="#FF0000"/>
</svg>
